<?xml version="1.0" encoding="iso-8859-1"?>
<!-- Generator: Adobe Illustrator 21.0.0, SVG Export Plug-In . SVG Version: 6.00 Build 0)  -->
<svg version="1.1" id="Capa_1" xmlns="http://www.w3.org/2000/svg" xmlns:xlink="http://www.w3.org/1999/xlink" x="0px" y="0px"
	 viewBox="0 0 900.228 900.228" style="enable-background:new 0 0 900.228 900.228;" xml:space="preserve">
<g>
	<g id="Map">
		
			<linearGradient id="SVGID_1_" gradientUnits="userSpaceOnUse" x1="450.114" y1="921.9962" x2="450.114" y2="-68.2504" gradientTransform="matrix(1 0 0 -1 0 891.9926)">
			<stop  offset="0" style="stop-color:#FFF33B"/>
			<stop  offset="0.014" style="stop-color:#FEE72E"/>
			<stop  offset="0.042" style="stop-color:#FED51B"/>
			<stop  offset="0.07" style="stop-color:#FDCA10"/>
			<stop  offset="0.1" style="stop-color:#FDC70C"/>
			<stop  offset="0.4" style="stop-color:#F3903F"/>
			<stop  offset="0.8" style="stop-color:#ED683C"/>
			<stop  offset="1" style="stop-color:#E93E3A"/>
		</linearGradient>
		<path style="fill:url(#SVGID_1_);" d="M893.309,2.374c-4.309-2.759-9.727-3.133-14.374-0.99L689.574,88.781L455.515,0.979l0,0l0,0
			c-0.36-0.12-0.735-0.15-1.095-0.255c-0.772-0.262-1.565-0.458-2.371-0.585c-0.6,0-1.2,0-1.8,0c-0.595-0.03-1.191-0.03-1.785,0
			c-0.767,0.132-1.524,0.317-2.266,0.555c-0.405,0.105-0.825,0.15-1.215,0.285l0,0l0,0L210.654,88.781L21.292,1.384
			C13.768-2.088,4.854,1.197,1.382,8.721c-0.91,1.971-1.381,4.116-1.381,6.287v780.194c0,5.853,3.403,11.171,8.717,13.623
			l195.049,90.022c0.225,0.105,0.495,0,0.72,0.165c1.76,0.759,3.65,1.172,5.566,1.215c1.626-0.03,3.236-0.318,4.771-0.855
			c0.165,0,0.33,0,0.495-0.09l234.793-88.057l234.794,88.057c0.165,0,0.33,0,0.495,0.09c1.535,0.537,3.145,0.826,4.771,0.855
			c1.916-0.044,3.806-0.456,5.566-1.215c0.225-0.105,0.495,0,0.72-0.165l195.049-90.022c5.314-2.452,8.717-7.771,8.717-13.623
			V15.008C900.225,9.893,897.618,5.131,893.309,2.374z M30.009,38.458l165.041,76.174v747.186L30.009,785.599V38.458z
			 M225.058,115.428l210.052-78.77v748.146l-210.052,78.77V115.428z M465.118,36.658l210.052,78.77v748.146l-210.052-78.77V36.658z
			 M870.219,785.599l-165.041,76.174V114.632l165.041-76.174V785.599z"/>
		
			<linearGradient id="SVGID_2_" gradientUnits="userSpaceOnUse" x1="570.1439" y1="921.9962" x2="570.1439" y2="-68.2504" gradientTransform="matrix(1 0 0 -1 0 891.9926)">
			<stop  offset="0" style="stop-color:#FFF33B"/>
			<stop  offset="0.014" style="stop-color:#FEE72E"/>
			<stop  offset="0.042" style="stop-color:#FED51B"/>
			<stop  offset="0.07" style="stop-color:#FDCA10"/>
			<stop  offset="0.1" style="stop-color:#FDC70C"/>
			<stop  offset="0.4" style="stop-color:#F3903F"/>
			<stop  offset="0.8" style="stop-color:#ED683C"/>
			<stop  offset="1" style="stop-color:#E93E3A"/>
		</linearGradient>
		<polygon style="fill:url(#SVGID_2_);" points="601.982,277.033 570.144,308.871 538.306,277.033 517.091,298.248 548.929,330.086 
			517.091,361.924 538.306,383.139 570.144,351.301 601.982,383.139 623.197,361.924 591.359,330.086 623.197,298.248 		"/>
		
			<linearGradient id="SVGID_3_" gradientUnits="userSpaceOnUse" x1="330.0841" y1="921.9962" x2="330.0841" y2="-68.2504" gradientTransform="matrix(1 0 0 -1 0 891.9926)">
			<stop  offset="0" style="stop-color:#FFF33B"/>
			<stop  offset="0.014" style="stop-color:#FEE72E"/>
			<stop  offset="0.042" style="stop-color:#FED51B"/>
			<stop  offset="0.07" style="stop-color:#FDCA10"/>
			<stop  offset="0.1" style="stop-color:#FDC70C"/>
			<stop  offset="0.4" style="stop-color:#F3903F"/>
			<stop  offset="0.8" style="stop-color:#ED683C"/>
			<stop  offset="1" style="stop-color:#E93E3A"/>
		</linearGradient>
		<polygon style="fill:url(#SVGID_3_);" points="361.922,517.093 330.084,548.93 298.246,517.093 277.031,538.308 308.869,570.146 
			277.031,601.984 298.246,623.199 330.084,591.361 361.922,623.199 383.137,601.984 351.299,570.146 383.137,538.308 		"/>
		
			<linearGradient id="SVGID_4_" gradientUnits="userSpaceOnUse" x1="405.1028" y1="921.9962" x2="405.1028" y2="-68.2504" gradientTransform="matrix(1 0 0 -1 0 891.9926)">
			<stop  offset="0" style="stop-color:#FFF33B"/>
			<stop  offset="0.014" style="stop-color:#FEE72E"/>
			<stop  offset="0.042" style="stop-color:#FED51B"/>
			<stop  offset="0.07" style="stop-color:#FDCA10"/>
			<stop  offset="0.1" style="stop-color:#FDC70C"/>
			<stop  offset="0.4" style="stop-color:#F3903F"/>
			<stop  offset="0.8" style="stop-color:#ED683C"/>
			<stop  offset="1" style="stop-color:#E93E3A"/>
		</linearGradient>
		<rect x="390.099" y="555.142" style="fill:url(#SVGID_4_);" width="30.007" height="30.007"/>
		
			<linearGradient id="SVGID_5_" gradientUnits="userSpaceOnUse" x1="510.129" y1="921.9962" x2="510.129" y2="-68.2504" gradientTransform="matrix(1 0 0 -1 0 891.9926)">
			<stop  offset="0" style="stop-color:#FFF33B"/>
			<stop  offset="0.014" style="stop-color:#FEE72E"/>
			<stop  offset="0.042" style="stop-color:#FED51B"/>
			<stop  offset="0.07" style="stop-color:#FDCA10"/>
			<stop  offset="0.1" style="stop-color:#FDC70C"/>
			<stop  offset="0.4" style="stop-color:#F3903F"/>
			<stop  offset="0.8" style="stop-color:#ED683C"/>
			<stop  offset="1" style="stop-color:#E93E3A"/>
		</linearGradient>
		<rect x="480.121" y="555.142" style="fill:url(#SVGID_5_);" width="60.015" height="30.007"/>
		
			<linearGradient id="SVGID_6_" gradientUnits="userSpaceOnUse" x1="570.1439" y1="921.9962" x2="570.1439" y2="-68.2504" gradientTransform="matrix(1 0 0 -1 0 891.9926)">
			<stop  offset="0" style="stop-color:#FFF33B"/>
			<stop  offset="0.014" style="stop-color:#FEE72E"/>
			<stop  offset="0.042" style="stop-color:#FED51B"/>
			<stop  offset="0.07" style="stop-color:#FDCA10"/>
			<stop  offset="0.1" style="stop-color:#FDC70C"/>
			<stop  offset="0.4" style="stop-color:#F3903F"/>
			<stop  offset="0.8" style="stop-color:#ED683C"/>
			<stop  offset="1" style="stop-color:#E93E3A"/>
		</linearGradient>
		<rect x="555.14" y="525.135" style="fill:url(#SVGID_6_);" width="30.007" height="60.015"/>
		
			<linearGradient id="SVGID_7_" gradientUnits="userSpaceOnUse" x1="570.1439" y1="921.9962" x2="570.1439" y2="-68.2504" gradientTransform="matrix(1 0 0 -1 0 891.9926)">
			<stop  offset="0" style="stop-color:#FFF33B"/>
			<stop  offset="0.014" style="stop-color:#FEE72E"/>
			<stop  offset="0.042" style="stop-color:#FED51B"/>
			<stop  offset="0.07" style="stop-color:#FDCA10"/>
			<stop  offset="0.1" style="stop-color:#FDC70C"/>
			<stop  offset="0.4" style="stop-color:#F3903F"/>
			<stop  offset="0.8" style="stop-color:#ED683C"/>
			<stop  offset="1" style="stop-color:#E93E3A"/>
		</linearGradient>
		<rect x="555.14" y="450.116" style="fill:url(#SVGID_7_);" width="30.007" height="60.015"/>
		
			<linearGradient id="SVGID_8_" gradientUnits="userSpaceOnUse" x1="570.1439" y1="921.9962" x2="570.1439" y2="-68.2504" gradientTransform="matrix(1 0 0 -1 0 891.9926)">
			<stop  offset="0" style="stop-color:#FFF33B"/>
			<stop  offset="0.014" style="stop-color:#FEE72E"/>
			<stop  offset="0.042" style="stop-color:#FED51B"/>
			<stop  offset="0.07" style="stop-color:#FDCA10"/>
			<stop  offset="0.1" style="stop-color:#FDC70C"/>
			<stop  offset="0.4" style="stop-color:#F3903F"/>
			<stop  offset="0.8" style="stop-color:#ED683C"/>
			<stop  offset="1" style="stop-color:#E93E3A"/>
		</linearGradient>
		<rect x="555.14" y="375.097" style="fill:url(#SVGID_8_);" width="30.007" height="60.015"/>
	</g>
</g>
<g>
</g>
<g>
</g>
<g>
</g>
<g>
</g>
<g>
</g>
<g>
</g>
<g>
</g>
<g>
</g>
<g>
</g>
<g>
</g>
<g>
</g>
<g>
</g>
<g>
</g>
<g>
</g>
<g>
</g>
</svg>
